<?xml version="1.0" encoding="utf-8"?>
<!-- Generator: Adobe Illustrator 17.0.0, SVG Export Plug-In . SVG Version: 6.00 Build 0)  -->
<!DOCTYPE svg PUBLIC "-//W3C//DTD SVG 1.1//EN" "http://www.w3.org/Graphics/SVG/1.1/DTD/svg11.dtd">
<svg version="1.1" id="Capa_1" xmlns="http://www.w3.org/2000/svg" xmlns:xlink="http://www.w3.org/1999/xlink" x="0px" y="0px"
	 width="16.838px" height="23.723px" viewBox="0 0 16.838 23.723" enable-background="new 0 0 16.838 23.723" xml:space="preserve">
<path fill="#231F20" d="M10.938,4.696v0.033l-5.34,0.028l0.164-0.311h0L6.06,4.131l4.292-0.022L11.559,0l-6.45,0.035l0.924,3.996
	C5.365,3.283,3.723,1.694,2.23,2.244l0.162,0.448C3.662,2.221,5.215,3.82,5.76,4.446C4.851,4.781,3.672,5.025,2.973,4.4L2.657,4.76
	c0.415,0.372,0.941,0.5,1.495,0.498c0.324,0,0.658-0.053,0.98-0.124C2.098,7.217-0.02,11.843,0,15.348
	c0.023,4.651,3.816,8.4,8.461,8.375c4.652-0.023,8.4-3.814,8.377-8.466C16.816,11.507,14.338,6.485,10.938,4.696z M10.836,18.059
	c-0.447,0.395-1.004,0.645-1.662,0.757l0.008,1.339l-1.439,0.008l-0.008-1.338c-0.65-0.11-1.234-0.381-1.742-0.803
	c-0.609-0.521-0.922-1.125-0.938-1.795l0.027-0.367l1.398-0.007l0.006,0.14c0.01,0.555,0.178,0.97,0.514,1.265
	C7.336,17.552,7.816,17.7,8.434,17.7c0.617-0.007,1.1-0.16,1.441-0.457c0.336-0.301,0.498-0.71,0.496-1.243
	c-0.002-0.437-0.158-0.78-0.482-1.038c-0.336-0.264-0.918-0.493-1.734-0.685c-0.904-0.21-1.6-0.535-2.057-0.961
	c-0.465-0.438-0.707-1.002-0.711-1.669c-0.004-0.763,0.291-1.399,0.881-1.887C6.67,9.427,7.146,9.208,7.684,9.108L7.678,7.942
	l1.438-0.008l0.006,1.128c0.643,0.087,1.182,0.311,1.605,0.662c0.566,0.471,0.877,1.128,0.922,1.95l0.008,0.143l-1.41,0.007
	l-0.016-0.117c-0.068-0.513-0.24-0.897-0.518-1.141c-0.273-0.24-0.676-0.366-1.199-0.361c-0.543,0.001-0.98,0.134-1.277,0.385
	c-0.297,0.248-0.438,0.584-0.436,1.034c0,0.389,0.137,0.693,0.41,0.922c0.277,0.234,0.773,0.437,1.473,0.6
	c1.025,0.237,1.801,0.59,2.316,1.051c0.514,0.468,0.781,1.063,0.783,1.77C11.789,16.812,11.471,17.515,10.836,18.059z"/>
</svg>
