<?xml version="1.0" encoding="utf-8"?>
<!-- Generator: Adobe Illustrator 17.0.0, SVG Export Plug-In . SVG Version: 6.00 Build 0)  -->
<!DOCTYPE svg PUBLIC "-//W3C//DTD SVG 1.1//EN" "http://www.w3.org/Graphics/SVG/1.1/DTD/svg11.dtd">
<svg version="1.1" id="Capa_1" xmlns="http://www.w3.org/2000/svg" xmlns:xlink="http://www.w3.org/1999/xlink" x="0px" y="0px"
	 width="17.515px" height="23.163px" viewBox="0 0 17.515 23.163" enable-background="new 0 0 17.515 23.163" xml:space="preserve">
<path d="M8.344,11.671c0-0.855-0.211-1.682-0.616-2.392L7.632,9.111H1.622L1.528,9.279c-0.404,0.709-0.616,1.537-0.616,2.392
	c0,2.181,1.388,3.988,3.189,4.287v5.093c-1.039,0.042-1.813,0.2-1.813,0.387c0,0.222,1.055,0.4,2.357,0.4
	c1.303,0,2.36-0.178,2.36-0.4c0-0.187-0.774-0.345-1.813-0.387v-5.097C6.975,15.636,8.344,13.836,8.344,11.671z M4.627,15.337
	c-1.682,0-3.052-1.644-3.052-3.668c0-0.674,0.151-1.325,0.44-1.896H7.24c0.288,0.571,0.441,1.223,0.441,1.896
	C7.682,13.694,6.31,15.337,4.627,15.337z M14.707,3.498h-2.643V1.206h2.643V3.498z M14.707,6.338V4.203h-2.643v2.136
	c-1.116,0.503-1.896,1.625-1.896,2.931v2.093v6.673v3.921h6.434v-3.921v-6.673V9.27C16.603,7.964,15.825,6.842,14.707,6.338z
	 M16.034,18.722h-5.241v-6.288h5.241V18.722z M7.404,11.74c0,0-0.139,3.325-2.732,3.325c-2.593,0-2.943-3.325-2.943-3.325H7.404z"/>
</svg>
