<?xml version="1.0" encoding="utf-8"?>
<!-- Generator: Adobe Illustrator 16.0.0, SVG Export Plug-In . SVG Version: 6.00 Build 0)  -->
<!DOCTYPE svg PUBLIC "-//W3C//DTD SVG 1.1//EN" "http://www.w3.org/Graphics/SVG/1.1/DTD/svg11.dtd">
<svg version="1.1" id="Layer_9" xmlns="http://www.w3.org/2000/svg" xmlns:xlink="http://www.w3.org/1999/xlink" x="0px" y="0px"
	 width="100px" height="100px" viewBox="0 0 100 100" enable-background="new 0 0 100 100" xml:space="preserve">
<path d="M71.039,20.691H63.35v-8.996c0-1.351,0.465-1.351,0.715-1.351c0.787,0,1.932,0.67,2.27,0.905
	c0.143,0.099,0.311,0.151,0.479,0.155c0.492,0.015,0.906-0.377,0.906-0.87c0-0.063-0.006-0.125-0.02-0.184
	c-0.086-3.718-2.764-5.043-5.064-5.043c-0.096,0-0.162,0.002-0.174,0.004H45.035c-2.979,0-8.021,1.696-8.021,8.053
	c0,2.268-0.021,4.85-0.051,7.328h-8.004c-3.6,0-6.529,2.929-6.529,6.53v60.942c0,3.601,2.93,6.53,6.529,6.53h42.08
	c3.6,0,6.529-2.929,6.529-6.53V27.221C77.568,23.621,74.639,20.691,71.039,20.691z M45.064,7.052c0.002,0,0.002,0,0.002,0
	L62.533,7.05l0.102-0.002c0.799,0,2.445,0.217,3.074,1.911c-0.51-0.2-1.086-0.356-1.645-0.356c-0.738,0-2.457,0.301-2.457,3.092
	v17.448H38.576c0.061-3.403,0.178-10.447,0.178-15.78C38.754,7.232,44.387,7.052,45.064,7.052z M73.217,88.164
	c0,1.2-0.977,2.177-2.178,2.177h-42.08c-1.199,0-2.176-0.977-2.176-2.177V27.221c0-1.2,0.977-2.177,2.176-2.177h7.943
	c-0.023,1.618-0.049,3.038-0.068,4.099h-0.311c-0.932,0-1.688,0.755-1.688,1.687c0,0.932,0.756,1.687,1.688,1.687h26.988
	c0.932,0,1.688-0.755,1.688-1.687c0-0.931-0.756-1.687-1.688-1.687H63.35v-4.099h7.689c1.201,0,2.178,0.977,2.178,2.177V88.164z
	 M69.008,49.711H30.992V38.684h38.016V49.711z M31.572,62.335v-7.4h7.398v7.4H31.572z M42.6,62.335v-7.4H50v7.4H42.6z
	 M53.482,62.335v-7.4h7.4v7.4H53.482z M63.838,62.24v-7.317h5.332v7.317H63.838z M38.971,72.13h-7.398v-7.4h7.398V72.13z M50,72.13
	h-7.4v-7.4H50V72.13z M60.883,72.13h-7.4v-7.4h7.4V72.13z M31.645,74.524h7.4v7.4h-7.4V74.524z M42.672,74.524h7.4v7.4h-7.4V74.524z
	 M53.555,74.524h7.4v7.4h-7.4V74.524z M63.783,65.165h5.369v16.469h-5.369V65.165z"/>
</svg>
